<svg width="24" height="24" viewBox="0 0 24 24" fill="none" xmlns="http://www.w3.org/2000/svg">
<path d="M6.72896 3C6.31162 3 6.01353 3.35294 6.01353 3.70588V20.2941C6.01353 20.7059 6.31162 21 6.72896 21H16.268C16.6854 21 16.9835 20.7059 16.9835 20.2941V3.70588C16.9835 3.29412 16.6257 3 16.268 3H6.72896ZM12.512 20.3529H10.5446C10.2465 20.3529 10.0676 20.1176 10.0676 19.8824C10.0676 19.5882 10.3061 19.4118 10.5446 19.4118H12.512C12.8101 19.4118 12.989 19.6471 12.989 19.8824C12.989 20.1765 12.7505 20.3529 12.512 20.3529ZM10.1273 16.2353L8.33868 17.2941V15.2353L8.81563 15.5294L10.9023 11.8824L11.737 12.3529L9.6503 16L10.1273 16.2353ZM14.9564 7.94118L15.016 5.88235L13.2275 6.88235L13.7044 7.17647L11.4985 10.8824L12.3332 11.4118L14.5391 7.70588L14.9564 7.94118ZM7.44439 17.7647H15.493V5.23529H7.44439V17.7647ZM16.5661 18.7647H6.49048V4.29412H16.5661V18.7647ZM16.268 22H6.72896C5.77505 22 5 21.2353 5 20.2941V3.70588C5 2.76471 5.77505 2 6.72896 2H16.268C17.2219 2 17.997 2.76471 17.997 3.70588V20.2941C18.0566 21.2353 17.2219 22 16.268 22Z" fill="#757575"/>
</svg>
