<svg width="40" height="40" viewBox="0 0 40 40" fill="none" xmlns="http://www.w3.org/2000/svg">
<path fill-rule="evenodd" clip-rule="evenodd" d="M14.8096 26.2461C11.7422 26.2461 9.91406 24.2422 9.91406 20.9023V19.2061C9.91406 15.8398 11.7949 13.7568 14.8359 13.7568C17.8682 13.7568 19.7402 15.8398 19.7402 19.2061V20.9023C19.7402 24.2246 17.877 26.2461 14.8096 26.2461ZM14.8184 15.3301C12.9199 15.3301 11.7334 16.8154 11.7334 19.2061V20.9023C11.7334 23.2578 12.8848 24.6641 14.8184 24.6641C16.7607 24.6641 17.9121 23.2578 17.9121 20.9023V19.2061C17.9121 16.8066 16.7256 15.3301 14.8184 15.3301Z" fill="#757575"/>
<path d="M22.3154 25.1562C21.7178 24.6465 21.3926 24.0752 21.3926 23.5127C21.3926 23.0205 21.709 22.6777 22.1484 22.6777C22.5176 22.6777 22.79 22.8535 23.1592 23.3457C23.8008 24.251 24.6709 24.6729 25.9189 24.6729C27.5098 24.6729 28.4326 24.0049 28.4326 22.8711C28.4326 21.9219 27.8174 21.3242 26.4902 20.9814L24.5391 20.4717C22.5703 19.9707 21.5859 18.8984 21.5859 17.2725C21.5859 15.1631 23.2734 13.7568 25.8047 13.7568C27.0791 13.7568 28.2568 14.1523 29.0479 14.8291C29.6191 15.3301 29.9355 15.9277 29.9355 16.5166C29.9355 16.9736 29.6367 17.29 29.1797 17.29C28.8105 17.29 28.5557 17.123 28.3711 16.7803C27.9229 15.8574 26.9912 15.3125 25.8398 15.3125C24.3809 15.3125 23.4492 16.0244 23.4492 17.1318C23.4492 17.9756 24.0293 18.5732 25.1455 18.8633L27.0791 19.3643C29.25 19.9268 30.2344 20.9551 30.2344 22.6689C30.2344 24.8662 28.5293 26.2461 25.8135 26.2461C24.3633 26.2461 23.1328 25.8594 22.3154 25.1562Z" fill="#757575"/>
<path fill-rule="evenodd" clip-rule="evenodd" d="M37 20C37 29.3888 29.3888 37 20 37C10.6112 37 3 29.3888 3 20C3 10.6112 10.6112 3 20 3C29.3888 3 37 10.6112 37 20ZM35 20C35 28.2843 28.2843 35 20 35C11.7157 35 5 28.2843 5 20C5 11.7157 11.7157 5 20 5C28.2843 5 35 11.7157 35 20Z" fill="#757575"/>
</svg>
