<svg width="24" height="24" viewBox="0 0 24 24" fill="none" xmlns="http://www.w3.org/2000/svg">
<path fill-rule="evenodd" clip-rule="evenodd" d="M18.6637 4.30391H5.40335C4.85363 4.30391 4.43798 4.73296 4.43798 5.21564V18.5832C4.43798 19.1195 4.85363 19.5486 5.40335 19.5486H18.6637C19.2134 19.5486 19.629 19.133 19.629 18.5832V5.26927C19.629 4.73296 19.2134 4.30391 18.6637 4.30391ZM3.33854 6.91843H2.01117V5.8324H3.40558V5.28268C3.40558 4.19664 4.31731 3.21787 5.47039 3.21787H6.19441V1.87709H7.28044V3.21787H8.43352V1.87709H9.51955V3.21787H10.686V1.87709H11.7721V3.21787H12.9251V1.87709H14.0782V3.21787H15.0436V1.87709H16.1296V3.21787H17.2827V1.87709H18.3687V3.15083H18.7039C19.857 3.15083 20.7687 4.06257 20.7687 5.21564V6.0067H22.0961V7.10614H20.7687V8.25921H22.0961V9.41229H20.7687V10.324H22.0961V11.4771H20.7687V12.5765H22.0961V13.7296H20.7687V14.8156H22.0961V15.9687H20.7687V17.0682H22.0425V18.2212H20.7151V18.5832C20.7151 19.7363 19.8033 20.648 18.6503 20.648H17.9263V21.9888H16.7732V20.648H15.6201V21.9888H14.5341V20.648H13.5687V21.9888H12.4827V20.648H11.3296V21.9888H10.2436V20.648H9.0905V21.9888H8.00447V20.648H6.85139V21.9888H5.76536V20.648H5.40335C4.25028 20.648 3.33854 19.7363 3.33854 18.5832V17.9799H2.01117V16.8804H3.33854V15.7274H2.01117V14.5743H3.33854V13.4883H2.01117V12.3352H3.33854V11.2358H2.01117V10.0827H3.33854V9.17095H2.01117V8.01787H3.33854V6.91843ZM17.1218 5.61787H7.01229C6.36871 5.61787 5.8324 6.15419 5.8324 6.81117V17.0547C5.8324 17.6983 6.36871 18.2346 7.01229 18.2346H17.1218C17.7654 18.2346 18.3017 17.7117 18.3017 17.0547V6.79776C18.3017 6.15419 17.7654 5.61787 17.1218 5.61787ZM9.51453 14.1594C9.78578 13.8902 9.93297 13.4938 9.9561 12.9703H9.02879C9.01618 13.2815 8.96361 13.497 8.87109 13.6168C8.77857 13.7346 8.61035 13.7935 8.36643 13.7935C8.11831 13.7935 7.94273 13.7083 7.83969 13.538C7.73876 13.3677 7.6883 13.0544 7.6883 12.5981V11.7307C7.6946 11.3333 7.74927 11.0483 7.85231 10.8759C7.95534 10.7014 8.13092 10.6141 8.37905 10.6141C8.62296 10.6141 8.79013 10.6762 8.88055 10.8002C8.97307 10.9222 9.02354 11.1451 9.03195 11.4689H9.96241C9.92667 10.9453 9.77842 10.5437 9.51768 10.264C9.25904 9.98436 8.8795 9.84453 8.37905 9.84453C7.87018 9.84453 7.47276 10.0159 7.18679 10.3586C6.90082 10.6993 6.75783 11.185 6.75783 11.8159V12.5886C6.75783 13.2215 6.89556 13.7094 7.17102 14.0521C7.44858 14.3928 7.84705 14.5631 8.36643 14.5631C8.86057 14.5631 9.24327 14.4285 9.51453 14.1594ZM11.4543 14.5V12.8851H12.0725C12.5456 12.8851 12.9157 12.7547 13.1828 12.494C13.4498 12.2332 13.5833 11.8779 13.5833 11.4279C13.5833 10.9779 13.4477 10.612 13.1765 10.3303C12.9073 10.0485 12.5456 9.90761 12.0914 9.90761H10.527V14.5H11.4543ZM12.0914 12.1123H11.4543V10.6804H12.1009C12.267 10.6825 12.3995 10.7519 12.4983 10.8885C12.5971 11.0231 12.6466 11.205 12.6466 11.4342C12.6466 11.655 12.5982 11.8232 12.5015 11.9389C12.4047 12.0545 12.2681 12.1123 12.0914 12.1123ZM17.1916 13.087V9.90761H16.2643V13.0838C16.2622 13.3361 16.2202 13.518 16.1382 13.6295C16.0562 13.7388 15.9048 13.7935 15.684 13.7935C15.4632 13.7935 15.3107 13.7378 15.2266 13.6263C15.1425 13.5149 15.1005 13.3288 15.1005 13.068V9.90761H14.1668V13.0649C14.1668 13.5506 14.2962 13.9217 14.5548 14.1783C14.8155 14.4348 15.1919 14.5631 15.684 14.5631C16.1676 14.5631 16.5387 14.4369 16.7974 14.1846C17.056 13.9302 17.1874 13.5643 17.1916 13.087Z" fill="#757575"/>
</svg>
