<svg width="24" height="24" viewBox="0 0 24 24" fill="none" xmlns="http://www.w3.org/2000/svg">
<path fill-rule="evenodd" clip-rule="evenodd" d="M3.0148 18.7319V17.5567H1.74301V18.7447C1.74301 19.7922 2.5951 20.648 3.63797 20.648H20.362C21.4049 20.648 22.257 19.7922 22.257 18.7447V5.2553C22.257 4.20782 21.4049 3.35196 20.362 3.35196H19.1665V4.61659H20.362C20.7181 4.61659 20.9979 4.9104 20.9979 5.2553V18.7319C20.9979 19.0896 20.7054 19.3706 20.362 19.3706H3.6507C3.2946 19.3706 3.0148 19.0768 3.0148 18.7319ZM10.671 3.35196H3.57438C2.56966 3.35196 1.74301 4.1695 1.74301 5.17865V8.9981C1.74301 10.0072 2.56966 10.8376 3.57438 10.8376H10.671C11.6884 10.8376 12.5023 10.0072 12.5023 8.9981V5.19143C12.5023 4.18227 11.6757 3.35196 10.671 3.35196ZM3.0148 14.0311V12.6515H1.75571V14.0311C1.75571 14.9636 2.51879 15.73 3.4472 15.73H15.6946C16.623 15.73 17.386 14.9636 17.386 14.0311V5.05091C17.386 4.1184 16.623 3.35196 15.6946 3.35196H14.3083V4.61659H15.6946C15.9362 4.61659 16.127 4.82098 16.127 5.05091V14.0311C16.127 14.2738 15.9235 14.4654 15.6946 14.4654H3.4472C3.20556 14.4654 3.0148 14.261 3.0148 14.0311ZM5.19538 9.1V7.6725H5.74184C6.16006 7.6725 6.48719 7.55726 6.72325 7.32678C6.95931 7.09629 7.07734 6.78217 7.07734 6.3844C7.07734 5.98664 6.95745 5.66322 6.71767 5.41415C6.47976 5.16508 6.16006 5.04054 5.75857 5.04054H4.37568V9.1H5.19538ZM5.75857 6.98942H5.19538V5.72363H5.76694C5.91377 5.72548 6.03087 5.78682 6.11823 5.90764C6.20559 6.0266 6.24927 6.18738 6.24927 6.38998C6.24927 6.58514 6.20652 6.73384 6.12102 6.83607C6.03552 6.9383 5.9147 6.98942 5.75857 6.98942ZM9.29944 5.04054L8.75298 6.43459L8.20651 5.04054H7.26693L8.22324 7.05354L7.24741 9.1H8.19815L8.75298 7.68086L9.31059 9.1H10.2613L9.2855 7.05354L10.239 5.04054H9.29944Z" fill="#757575"/>
</svg>
