<svg width="40" height="40" viewBox="0 0 40 40" fill="none" xmlns="http://www.w3.org/2000/svg">
<path d="M11.9864 12.3356C12.0754 12.8695 11.7237 13.3749 11.1969 13.4804L29.7639 22.7639L29.6056 22.4472C29.3586 21.9532 29.5588 21.3526 30.0528 21.1056C30.5468 20.8586 31.1474 21.0588 31.3944 21.5528L32.8944 24.5528C33.0364 24.8366 33.0351 25.171 32.8911 25.4538C32.7471 25.7366 32.4774 25.9342 32.1644 25.9864L29.1644 26.4864C28.6196 26.5772 28.1044 26.2092 28.0136 25.6644C27.9246 25.1305 28.2763 24.6251 28.8031 24.5196L10.4909 15.3635C10.5437 15.7482 10.3685 16.1451 10.0145 16.3575C9.54092 16.6416 8.92666 16.4881 8.64251 16.0145L7.14251 13.5145C6.97226 13.2308 6.9534 12.8812 7.09213 12.5808C7.23086 12.2803 7.50921 12.068 7.8356 12.0136L10.8356 11.5136C11.3804 11.4228 11.8956 11.7908 11.9864 12.3356Z" fill="#757575"/>
<path fill-rule="evenodd" clip-rule="evenodd" d="M5 8C3.89543 8 3 8.89543 3 10V28C3 29.1046 3.89543 30 5 30H1C0.447715 30 0 30.4477 0 31C0 31.5523 0.447715 32 1 32H39C39.5523 32 40 31.5523 40 31C40 30.4477 39.5523 30 39 30H35C36.1046 30 37 29.1046 37 28V10C37 8.89543 36.1046 8 35 8H5ZM35 10H5V28H35V10Z" fill="#757575"/>
</svg>
