<svg width="40" height="40" viewBox="0 0 40 40" fill="none" xmlns="http://www.w3.org/2000/svg">
<path d="M16 26.5C16.5523 26.5 17 26.9477 17 27.5V30C17 30.5523 16.5523 31 16 31C15.4477 31 15 30.5523 15 30V27.5C15 26.9477 15.4477 26.5 16 26.5Z" fill="#757575"/>
<path d="M20 26.5C20.5523 26.5 21 26.9477 21 27.5V30C21 30.5523 20.5523 31 20 31C19.4477 31 19 30.5523 19 30V27.5C19 26.9477 19.4477 26.5 20 26.5Z" fill="#757575"/>
<path d="M24 26.5C24.5523 26.5 25 26.9477 25 27.5V30C25 30.5523 24.5523 31 24 31C23.4477 31 23 30.5523 23 30V27.5C23 26.9477 23.4477 26.5 24 26.5Z" fill="#757575"/>
<path fill-rule="evenodd" clip-rule="evenodd" d="M20 6C24.9706 6 29 10.0294 29 15V32.5823C29 33.3653 28.3653 34 27.5823 34H12.4177C11.6347 34 11 33.3653 11 32.5823V15C11 10.0294 15.0294 6 20 6ZM13.277 13.0437C13.0967 13.6646 13 14.321 13 15C13 16.0811 13.2451 17.1049 13.6827 18.0189C13.98 18.0017 14.409 17.9423 14.9291 17.772C15.7752 17.4948 16.9014 16.9112 18.1124 15.6735C16.0616 15.1706 14.662 14.3198 13.7293 13.484C13.5631 13.3351 13.4128 13.1876 13.277 13.0437ZM20 24C17.1727 24 14.65 22.6963 13 20.6573V32H27V20.6573C25.35 22.6963 22.8273 24 20 24ZM15.064 11.9945C14.6569 11.6297 14.391 11.2882 14.2274 11.0394C15.1867 9.64392 16.6388 8.61367 18.3327 8.19979C18.276 8.38924 18.2235 8.59314 18.1776 8.81139C17.9202 10.037 17.8831 11.6745 18.473 13.7021C16.7956 13.2722 15.7271 12.5886 15.064 11.9945ZM20.1349 9.22251C20.2472 8.68773 20.41 8.2869 20.5436 8.0208C22.3123 8.15665 23.897 8.94981 25.0537 10.1564C24.8618 10.202 24.6596 10.2583 24.4483 10.3275C23.2581 10.7174 21.8216 11.504 20.3606 13.0286C19.8942 11.361 19.9519 10.0938 20.1349 9.22251ZM25.0709 12.2281C25.591 12.0578 26.02 11.9983 26.3174 11.9812C26.755 12.8952 27 13.919 27 15C27 15.679 26.9033 16.3355 26.723 16.9564C26.5872 16.8125 26.4368 16.665 26.2707 16.5161C25.338 15.6804 23.9384 14.8295 21.8876 14.3266C23.0986 13.0889 24.2248 12.5053 25.0709 12.2281ZM21.527 16.2981C22.1169 18.3255 22.0798 19.963 21.8224 21.1886C21.7766 21.4069 21.724 21.6108 21.6673 21.8002C23.3611 21.3863 24.8133 20.3561 25.7725 18.9607C25.6089 18.7119 25.3431 18.3704 24.936 18.0056C24.2729 17.4115 23.2044 16.7279 21.527 16.2981ZM19.4564 21.9792C17.6877 21.8434 16.1031 21.0502 14.9464 19.8437C15.1382 19.7981 15.3404 19.7418 15.5517 19.6726C16.7419 19.2827 18.1785 18.4961 19.6394 16.9714C20.1058 18.639 20.0481 19.9062 19.8651 20.7775C19.7528 21.3123 19.5901 21.7131 19.4564 21.9792Z" fill="#757575"/>
<path fill-rule="evenodd" clip-rule="evenodd" d="M7 4C7 2.89543 7.89543 2 9 2H31C32.1046 2 33 2.89543 33 4V36C33 37.1046 32.1046 38 31 38H9C7.89543 38 7 37.1046 7 36V4ZM9 4H31V36H9L9 4Z" fill="#757575"/>
</svg>
