<svg width="40" height="40" viewBox="0 0 40 40" fill="none" xmlns="http://www.w3.org/2000/svg">
<path d="M28 9C28.5523 9 29 8.55228 29 8C29 7.44772 28.5523 7 28 7C27.4477 7 27 7.44772 27 8C27 8.55228 27.4477 9 28 9Z" fill="#757575"/>
<path d="M29.0074 32.0056C29.0033 32.5588 28.5515 33.0041 27.9982 33C27.4449 32.9958 26.9997 32.544 27.0038 31.9907C27.0079 31.4374 27.4598 30.9922 28.013 30.9963C28.5663 31.0004 29.0115 31.4523 29.0074 32.0056Z" fill="#757575"/>
<path fill-rule="evenodd" clip-rule="evenodd" d="M19 1C19.5523 1 20 1.44772 20 2V3H31C32.1046 3 33 3.89543 33 5V35C33 36.1046 32.1046 37 31 37H20V38C20 38.5523 19.5523 39 19 39C18.4477 39 18 38.5523 18 38V36H11C9.34315 36 8 34.6569 8 33H6C5.44772 33 5 32.5523 5 32C5 31.4477 5.44772 31 6 31H8V27H6C5.44772 27 5 26.5523 5 26C5 25.4477 5.44772 25 6 25H8V21H6C5.44772 21 5 20.5523 5 20C5 19.4477 5.44772 19 6 19H8V15H6C5.44772 15 5 14.5523 5 14C5 13.4477 5.44772 13 6 13H8V9H6C5.44772 9 5 8.55228 5 8C5 7.44772 5.44772 7 6 7H8C8 5.34315 9.34315 4 11 4H18V2C18 1.44772 18.4477 1 19 1ZM20 35H31V5H20V9C24.4183 9 28 12.5817 28 17C28 19.2235 27.0929 21.2351 25.6286 22.685L27.7809 25.3753C28.1259 25.8066 28.056 26.4359 27.6247 26.7809C27.1934 27.1259 26.5641 27.056 26.2191 26.6247L24.0431 23.9046C22.8567 24.6008 21.475 25 20 25V35ZM20 23C21.0016 23 21.9458 22.7546 22.7759 22.3206L22.2191 21.6247C21.8741 21.1934 21.944 20.5641 22.3753 20.2191C22.8066 19.8741 23.4359 19.944 23.7809 20.3753L24.3698 21.1115C25.3806 20.0376 26 18.5911 26 17C26 13.6863 23.3137 11 20 11V14C21.6569 14 23 15.3431 23 17C23 18.6569 21.6569 20 20 20V23ZM20 18C20.5523 18 21 17.5523 21 17C21 16.4477 20.5523 16 20 16V18ZM15 32H18V34H11C10.4477 34 10 33.5523 10 33V7C10 6.44772 10.4477 6 11 6H18V8H15C13.3431 8 12 9.34315 12 11V29C12 30.6569 13.3431 32 15 32ZM15 10H18V30H15C14.4477 30 14 29.5523 14 29V11C14 10.4477 14.4477 10 15 10Z" fill="#757575"/>
</svg>
