<svg width="24" height="24" viewBox="0 0 24 24" fill="none" xmlns="http://www.w3.org/2000/svg">
<path fill-rule="evenodd" clip-rule="evenodd" d="M11.524 4.67969V11.524H4.6797C3.2774 11.524 2.14526 12.6561 2.14526 14.0584V19.3203C2.14526 20.7226 3.2774 21.8547 4.6797 21.8547H19.3203C20.7226 21.8547 21.8548 20.7226 21.8548 19.3203V4.67969C21.8548 3.27739 20.7226 2.14525 19.3203 2.14525H14.0584C12.6561 2.14525 11.524 3.27739 11.524 4.67969ZM16.1812 16.1812V12C16.1812 11.3181 17.2104 11.3181 17.2104 12V16.6829C17.2104 16.966 16.9789 17.1975 16.6958 17.1975H7.96033C7.29134 17.1975 7.29134 16.1812 7.96033 16.1812H16.1812ZM4.6797 13.5567C4.40953 13.5567 4.19082 13.7754 4.19082 14.0456V19.3203C4.19082 19.5905 4.40953 19.8092 4.6797 19.8092H19.3203C19.5905 19.8092 19.8092 19.5905 19.8092 19.3203V4.67969C19.8092 4.40953 19.5905 4.19082 19.3203 4.19082H14.0584C13.7883 4.19082 13.5696 4.40953 13.5696 4.67969V12.0386C13.5696 12.8748 12.8877 13.5567 12.0515 13.5567H4.6797ZM4.69257 20.8255C3.85633 20.8255 3.17448 20.1565 3.17448 19.3203V14.0584C3.17448 13.2222 3.85633 12.5403 4.69257 12.5403H12.0643C12.3345 12.5403 12.5532 12.3216 12.5532 12.0515V4.67969C12.5532 3.84346 13.2351 3.1616 14.0713 3.1616H19.3332C20.1566 3.1616 20.8384 3.84346 20.8384 4.67969V19.3203C20.8384 20.1437 20.1694 20.8255 19.3332 20.8255H4.69257ZM16.3017 8.93115C16.5053 8.69385 16.6071 8.3606 16.6071 7.9314V7.38428C16.6042 6.94629 16.5002 6.60645 16.2951 6.36475C16.09 6.12158 15.8095 6 15.4536 6C15.0917 6 14.809 6.12378 14.6054 6.37134C14.4018 6.61743 14.3 6.96021 14.3 7.39966V7.94678C14.3029 8.37012 14.4069 8.69971 14.612 8.93555C14.8171 9.16992 15.0991 9.28711 15.4579 9.28711C15.8183 9.28711 16.0995 9.16846 16.3017 8.93115ZM15.8359 6.75146C15.9179 6.89209 15.9589 7.10669 15.9589 7.39526V7.95117C15.9575 8.22363 15.9157 8.42505 15.8337 8.55542C15.7516 8.68433 15.6264 8.74878 15.4579 8.74878C15.2836 8.74878 15.1547 8.68286 15.0712 8.55103C14.9877 8.41772 14.946 8.21118 14.946 7.9314V7.3623C14.9489 7.08545 14.9914 6.87964 15.0734 6.74487C15.1555 6.60864 15.2822 6.54053 15.4536 6.54053C15.6264 6.54053 15.7538 6.61084 15.8359 6.75146ZM18.321 8.10938C18.3884 8.17529 18.4221 8.27344 18.4221 8.40381C18.4221 8.64258 18.3093 8.76196 18.0837 8.76196C17.9211 8.76196 17.8039 8.72021 17.7321 8.63672C17.6603 8.55322 17.6245 8.41919 17.6245 8.23462H16.9763C16.9763 8.44995 17.0239 8.63672 17.1191 8.79492C17.2158 8.95312 17.3491 9.07471 17.519 9.15967C17.6889 9.24463 17.8771 9.28711 18.0837 9.28711C18.3884 9.28711 18.6293 9.20874 18.8066 9.052C18.9838 8.89526 19.0724 8.67773 19.0724 8.39941C19.0724 8.146 19.0014 7.93726 18.8593 7.77319C18.7187 7.60913 18.4924 7.4707 18.1804 7.35791C18.0016 7.28174 17.8771 7.2085 17.8068 7.13818C17.7365 7.06641 17.7014 6.98657 17.7014 6.89868C17.7014 6.78589 17.7328 6.69653 17.7958 6.63062C17.8588 6.56323 17.9467 6.52954 18.0595 6.52954C18.1796 6.52954 18.2712 6.56909 18.3342 6.64819C18.3986 6.72583 18.4308 6.83936 18.4308 6.98877H19.0746C19.0746 6.79688 19.0329 6.62549 18.9494 6.47461C18.8674 6.32373 18.7495 6.20728 18.5956 6.12524C18.4418 6.04175 18.2668 6 18.0705 6C17.7761 6 17.5329 6.08203 17.341 6.24609C17.1506 6.40869 17.0554 6.62476 17.0554 6.89429C17.0554 7.11694 17.1257 7.3103 17.2663 7.47437C17.4069 7.63696 17.6376 7.77905 17.9584 7.90063C18.1342 7.97241 18.2551 8.04199 18.321 8.10938Z" fill="#757575"/>
</svg>
