<svg width="40" height="40" viewBox="0 0 40 40" fill="none" xmlns="http://www.w3.org/2000/svg">
<path fill-rule="evenodd" clip-rule="evenodd" d="M13 15C13 13.8954 13.8954 13 15 13H25C26.1046 13 27 13.8954 27 15V25C27 26.1046 26.1046 27 25 27H15C13.8954 27 13 26.1046 13 25V15ZM15 15H25V25H15V15Z" fill="#757575"/>
<path fill-rule="evenodd" clip-rule="evenodd" d="M12 3C12.5523 3 13 3.44772 13 4V6H15V4C15 3.44772 15.4477 3 16 3C16.5523 3 17 3.44772 17 4V6H19V4C19 3.44772 19.4477 3 20 3C20.5523 3 21 3.44772 21 4V6H23V4C23 3.44772 23.4477 3 24 3C24.5523 3 25 3.44772 25 4V6H27V4C27 3.44772 27.4477 3 28 3C28.5523 3 29 3.44772 29 4V6H32C33.1046 6 34 6.89543 34 8V11H36C36.5523 11 37 11.4477 37 12C37 12.5523 36.5523 13 36 13H34V15H36C36.5523 15 37 15.4477 37 16C37 16.5523 36.5523 17 36 17H34V19H36C36.5523 19 37 19.4477 37 20C37 20.5523 36.5523 21 36 21H34V23H36C36.5523 23 37 23.4477 37 24C37 24.5523 36.5523 25 36 25H34V27H36C36.5523 27 37 27.4477 37 28C37 28.5523 36.5523 29 36 29H34V32C34 33.1046 33.1046 34 32 34H29V36C29 36.5523 28.5523 37 28 37C27.4477 37 27 36.5523 27 36V34H25V36C25 36.5523 24.5523 37 24 37C23.4477 37 23 36.5523 23 36V34H21V36C21 36.5523 20.5523 37 20 37C19.4477 37 19 36.5523 19 36V34H17V36C17 36.5523 16.5523 37 16 37C15.4477 37 15 36.5523 15 36V34H13V36C13 36.5523 12.5523 37 12 37C11.4477 37 11 36.5523 11 36V34H8C6.89543 34 6 33.1046 6 32V29H4C3.44772 29 3 28.5523 3 28C3 27.4477 3.44772 27 4 27H6V25H4C3.44772 25 3 24.5523 3 24C3 23.4477 3.44772 23 4 23H6V21H4C3.44772 21 3 20.5523 3 20C3 19.4477 3.44772 19 4 19H6V17H4C3.44772 17 3 16.5523 3 16C3 15.4477 3.44772 15 4 15H6V13H4C3.44772 13 3 12.5523 3 12C3 11.4477 3.44772 11 4 11H6V8C6 6.89543 6.89543 6 8 6H11V4C11 3.44772 11.4477 3 12 3ZM32 8V32H8V8H32Z" fill="#757575"/>
</svg>
