<svg width="24" height="24" viewBox="0 0 24 24" fill="none" xmlns="http://www.w3.org/2000/svg">
<path d="M4.7732 5.89944H6.03353C6.24806 5.89944 6.44917 5.84581 6.61007 5.75195C6.77096 5.6581 6.91845 5.51061 7.02571 5.3229L7.54861 4.43798C7.77655 4.04916 8.08493 3.74078 8.44694 3.52625C8.80895 3.33854 9.238 3.21787 9.68046 3.21787H14.2391C14.6816 3.21787 15.1106 3.33854 15.4726 3.53966C15.8346 3.75419 16.143 4.06257 16.371 4.45139L16.8805 5.33631C16.9877 5.52402 17.1352 5.6715 17.2961 5.76536C17.457 5.85921 17.6581 5.91285 17.8726 5.91285H19.133C19.924 5.91285 20.6481 6.23463 21.1844 6.75754C21.7073 7.28044 22.0291 8.00447 22.0291 8.80894V17.8592C22.0291 18.6637 21.7073 19.3743 21.1844 19.9106C20.6615 20.4335 19.9374 20.7553 19.133 20.7553H4.7732C3.96873 20.7553 3.25811 20.4335 2.7218 19.9106C2.19889 19.3877 1.87711 18.6637 1.87711 17.8592V8.79553C1.87711 7.99106 2.19889 7.26704 2.7218 6.74413C3.25811 6.23463 3.96873 5.89944 4.7732 5.89944ZM11.9196 8.0581C13.3006 8.0581 14.5475 8.62123 15.4592 9.51955C16.3576 10.4179 16.9207 11.6782 16.9207 13.0592C16.9207 14.4402 16.3576 15.6871 15.4592 16.5855C14.5609 17.4972 13.3006 18.0469 11.9196 18.0469C10.5386 18.0469 9.29163 17.4838 8.3799 16.5855C7.48158 15.6871 6.91845 14.4402 6.91845 13.0592C6.91845 11.6782 7.48158 10.4179 8.3799 9.51955C9.29163 8.62123 10.5386 8.0581 11.9196 8.0581ZM14.7084 10.2704C13.9844 9.55977 13.0056 9.11731 11.9196 9.11731C10.8335 9.11731 9.85476 9.55977 9.14415 10.2704C8.43353 10.981 7.99107 11.9598 7.99107 13.0458C7.99107 14.1318 8.43353 15.1106 9.14415 15.8346C9.85476 16.5452 10.8335 16.9877 11.9196 16.9877C13.0056 16.9877 13.9844 16.5452 14.7084 15.8346C15.419 15.124 15.8615 14.1318 15.8615 13.0458C15.8615 11.9598 15.419 10.981 14.7084 10.2704ZM11.9196 9.85475C12.8045 9.85475 13.609 10.2168 14.1855 10.7933C14.762 11.3698 15.124 12.1743 15.124 13.0592C15.124 13.9441 14.762 14.7486 14.1855 15.3251C13.609 15.9017 12.8045 16.2637 11.9196 16.2637C11.0346 16.2637 10.2436 15.9017 9.66705 15.3251C9.09051 14.7486 8.7285 13.9441 8.7285 13.0592C8.7285 12.1743 9.09051 11.3832 9.66705 10.7933C10.2436 10.2168 11.0346 9.85475 11.9196 9.85475ZM13.4212 11.5441C13.0324 11.1553 12.4961 10.9274 11.9062 10.9274C11.3162 10.9274 10.7799 11.1687 10.4045 11.5441C10.0291 11.933 9.78772 12.4693 9.78772 13.0592C9.78772 13.6492 10.0291 14.1855 10.4179 14.5743C10.8067 14.9631 11.343 15.1911 11.9196 15.1911C12.5095 15.1911 13.0458 14.9497 13.4346 14.5743C13.8235 14.1855 14.0514 13.6492 14.0514 13.0592C14.0514 12.4693 13.8101 11.933 13.4212 11.5441ZM6.03353 7.24022H4.7732C4.34414 7.24022 3.95532 7.41452 3.67375 7.69609C3.39219 7.97765 3.21789 8.36648 3.21789 8.79553V17.8458C3.21789 18.2749 3.39219 18.6637 3.67375 18.9452C3.95532 19.2268 4.34414 19.4011 4.7732 19.4011H19.1464C19.5754 19.4011 19.9643 19.2268 20.2458 18.9452C20.5274 18.6637 20.7151 18.2749 20.7151 17.8458V8.79553C20.7151 8.36648 20.5408 7.97765 20.2458 7.69609C19.9643 7.41452 19.5754 7.24022 19.1464 7.24022H17.886C17.4436 7.24022 17.0145 7.11955 16.6525 6.91843C16.2905 6.70391 15.9687 6.39553 15.7542 6.02011L15.2313 5.13519C15.124 4.94748 14.99 4.8 14.8157 4.70614C14.6548 4.61229 14.4536 4.55865 14.2391 4.55865H9.68046C9.46593 4.55865 9.26482 4.61229 9.10392 4.70614C8.94303 4.8 8.79554 4.94748 8.68828 5.13519L8.17878 6.02011C7.95085 6.40893 7.64247 6.71731 7.26705 6.93184C6.89163 7.11955 6.47599 7.24022 6.03353 7.24022Z" fill="#757575"/>
</svg>
