<svg width="24" height="24" viewBox="0 0 24 24" fill="none" xmlns="http://www.w3.org/2000/svg">
<path d="M7.53105 1.47485H16.469C17.5145 1.47485 18.3687 2.3304 18.3687 3.37749V20.7566C18.3687 21.8037 17.5145 22.6592 16.469 22.6592H7.53105C6.48554 22.6592 5.63129 21.8037 5.63129 20.7566V3.37749C5.63129 2.3304 6.48554 1.47485 7.53105 1.47485ZM17.1065 18.9178V3.37749C17.1065 3.03271 16.8132 2.73902 16.469 2.73902H7.53105C7.1868 2.73902 6.89354 3.03271 6.89354 3.37749V18.9178H17.1065ZM12.0064 21.344C12.8351 21.344 12.8351 20.0798 12.0064 20.0798C11.1649 20.0798 11.1649 21.344 12.0064 21.344ZM11.2669 11.1157L12.2486 11.6903L9.71135 15.9936L10.2596 16.3128L8.18133 17.4876L8.20682 15.0998L8.74232 15.4062L11.2669 11.1157ZM15.2832 6.30167L12.8734 10.5922L11.8789 10.0303L14.2887 5.73982L13.7532 5.43335L15.8059 4.22026L15.8314 6.60813L15.2832 6.30167Z" fill="#757575"/>
</svg>
