<svg width="24" height="24" viewBox="0 0 24 24" fill="none" xmlns="http://www.w3.org/2000/svg">
<path d="M5.01076 2H6.44445V2.86957H5.01076C4.43728 2.86957 3.93549 3.08696 3.57706 3.52174C3.21864 3.88406 2.9319 4.3913 2.9319 4.97101V6.42029H2.14337V4.97101C2.14337 4.17391 2.50179 3.44928 3.00359 2.86957C3.50538 2.36232 4.22223 2 5.01076 2ZM17.6272 2H19.0609C19.8495 2 20.5663 2.36232 21.1398 2.86957C21.6416 3.37681 22 4.17391 22 4.97101V6.42029H21.2115V4.97101C21.2115 4.3913 20.9964 3.88406 20.638 3.52174C20.2796 3.15942 19.7061 2.86957 19.1326 2.86957H17.6989V2H17.6272ZM21.8566 17.6522V19.1014C21.8566 19.8986 21.4982 20.6232 20.9964 21.1304C20.4946 21.6377 19.7061 22 18.9176 22H17.4839V21.2029H18.9176C19.491 21.2029 19.9928 20.9855 20.4229 20.5507C20.7814 20.1884 20.9964 19.6812 20.9964 19.1014V17.6522H21.8566ZM6.37276 22H4.93907C4.15054 22 3.43369 21.6377 2.86022 21.1304C2.35843 20.6232 2 19.8986 2 19.1014V17.6522H2.78853V19.1014C2.78853 19.6812 3.00358 20.1884 3.43369 20.5507C3.79211 20.913 4.29391 21.2029 4.86738 21.2029H6.30107V22H6.37276ZM17.6272 6.34783C14.5448 3.23188 9.52688 3.23188 6.44445 6.34783C3.36201 9.46377 3.36201 14.5362 6.44445 17.6522C9.52688 20.7681 14.5448 20.7681 17.6272 17.6522C20.638 14.5362 20.638 9.46377 17.6272 6.34783ZM16.6953 16.7826C14.1147 19.4638 9.81362 19.4638 7.23298 16.7826C4.65233 14.1739 4.65233 9.82609 7.23298 7.21739C9.81362 4.6087 14.1147 4.6087 16.6953 7.21739C19.3477 9.89855 19.3477 14.1739 16.6953 16.7826ZM9.09677 9.82609C9.09677 9.31884 9.52688 8.88406 10.0287 8.88406C10.5305 8.88406 10.9606 9.31884 10.9606 9.82609C10.9606 10.3333 10.5305 10.7681 10.0287 10.7681C9.52688 10.7681 9.09677 10.4058 9.09677 9.82609ZM13.2545 9.82609C13.2545 9.31884 13.6846 8.88406 14.1864 8.88406C14.6882 8.88406 15.1183 9.31884 15.1183 9.82609C15.1183 10.3333 14.6882 10.7681 14.1864 10.7681C13.6846 10.7681 13.2545 10.4058 13.2545 9.82609ZM15.405 13.6667C14.8315 14.971 13.4695 15.8406 11.9642 15.8406C10.4588 15.8406 9.09677 14.971 8.5233 13.5942C8.45161 13.3768 8.5233 13.087 8.73835 13.0145C8.81004 13.0145 8.81003 13.0145 8.88172 13.0145C9.09677 13.0145 9.24015 13.087 9.31183 13.3043C9.74194 14.3188 10.7455 14.971 11.8925 14.971C13.0394 14.971 14.043 14.3188 14.4731 13.3043C14.5448 13.087 14.8315 12.942 15.0466 13.087C15.405 13.2319 15.5484 13.4493 15.405 13.6667Z" fill="#757575"/>
</svg>
