<svg version="1.2" xmlns="http://www.w3.org/2000/svg" viewBox="0 0 1440 258" width="2000" height="358">
	<path fill="#f3f3f3" id="Layer" class="s0" d="m0 130l80-32.7c80-32.3 240-98.3 400-89.8 160 8.5 320 89.5 480 98 160 8.5 320-57.5 480-57.2 160-0.3 320 65.7 480 106.2 160 40.5 320 57.5 480 24.5 160-33 320-114 480-98 160 16 320 131 480 196 160 65 320 82 480 65.3 160-16.3 320-65.3 480-114.3 160-49 320-98 480-89.8 160 7.8 320 73.8 480 114.3 160 40.5 320 57.5 480 24.5 160-33 320-114 480-155.2 160-40.8 320-40.8 480-57.1 160-16.7 320-48.7 480-24.5 160 24.8 320 105.8 480 130.6 160 24.2 320-7.8 480-32.6 160-24.2 320-41.2 480 0 160 40.8 320 138.8 480 122.5 160-16.7 320-146.7 480-163.4 160-16.3 320 81.7 480 114.4 160 32.3 320 0.3 480-8.2 160-8.5 320 8.5 480-32.7 160-40.8 320-138.8 400-187.8l80-49v490h-80c-80 0-240 0-400 0q-240 0-480 0-240 0-480 0-240 0-480 0-240 0-480 0-240 0-480 0-240 0-480 0-240 0-480 0-240 0-480 0-240 0-480 0-240 0-480 0-240 0-480 0-240 0-480 0-240 0-480 0-240 0-480 0-240 0-480 0-240 0-480 0-240 0-480 0-240 0-480 0-240 0-480 0-240 0-480 0-240 0-480 0-240 0-480 0c-160 0-320 0-400 0h-80z"/>
</svg>