<svg width="48" height="32" viewBox="0 0 48 32" fill="none" xmlns="http://www.w3.org/2000/svg">
<g clip-path="url(#clip0)">
<path d="M22.8107 15.5492V20.679H21.1858V8.01062H25.4953C26.0097 7.99986 26.5211 8.09123 27.0001 8.27946C27.479 8.4677 27.916 8.74907 28.2858 9.10734C28.6594 9.44385 28.9567 9.85655 29.1577 10.3177C29.3588 10.7789 29.459 11.2778 29.4515 11.7809C29.4622 12.2867 29.3636 12.7889 29.1624 13.253C28.9612 13.7171 28.6622 14.1321 28.2858 14.4696C27.5323 15.1893 26.6021 15.5488 25.4953 15.5482H22.8107V15.5492ZM22.8107 9.57028V13.9925H25.5356C25.8344 14.0014 26.1317 13.9477 26.4085 13.8349C26.6853 13.7222 26.9356 13.5527 27.1434 13.3375C27.35 13.1363 27.5143 12.8957 27.6264 12.6298C27.7386 12.3639 27.7964 12.0781 27.7964 11.7895C27.7964 11.5008 27.7386 11.2151 27.6264 10.9492C27.5143 10.6833 27.35 10.4427 27.1434 10.2415C26.9382 10.0217 26.6888 9.84815 26.4116 9.73226C26.1345 9.61638 25.8359 9.56082 25.5356 9.56927H22.8107V9.57028Z" fill="#5F6368"/>
<path d="M33.1957 11.7285C34.3967 11.7285 35.3447 12.05 36.0398 12.6928C36.7348 13.3357 37.082 14.2171 37.0813 15.3371V20.6792H35.5271V19.4763H35.4564C34.7836 20.4669 33.8887 20.9622 32.7718 20.9622C31.8184 20.9622 31.0208 20.6792 30.3789 20.1131C30.0709 19.8533 29.8246 19.5279 29.658 19.1607C29.4915 18.7935 29.4088 18.3937 29.4161 17.9904C29.4161 17.0935 29.7545 16.3802 30.4314 15.8506C31.1083 15.3209 32.0119 15.0554 33.1422 15.0541C34.1071 15.0541 34.9017 15.2309 35.5261 15.5847V15.2127C35.5279 14.9378 35.4686 14.6659 35.3525 14.4168C35.2365 14.1677 35.0665 13.9475 34.8549 13.7724C34.4252 13.3841 33.8652 13.1722 33.2865 13.179C32.3789 13.179 31.6607 13.5624 31.1318 14.3293L29.7007 13.4267C30.4879 12.2946 31.6529 11.7285 33.1957 11.7285ZM31.0935 18.0258C31.0924 18.2329 31.1407 18.4373 31.2345 18.6219C31.3282 18.8065 31.4646 18.966 31.6324 19.0871C31.9918 19.3703 32.4378 19.5203 32.895 19.5117C33.5806 19.5105 34.2379 19.2372 34.7227 18.7516C35.261 18.2441 35.5301 17.6488 35.5301 16.9655C35.0235 16.5612 34.317 16.359 33.4107 16.359C32.7506 16.359 32.2003 16.5184 31.7596 16.8371C31.3145 17.1606 31.0935 17.5538 31.0935 18.0258Z" fill="#5F6368"/>
<path d="M46.003 12.0117L40.5773 24.5002H38.8999L40.9134 20.1305L37.3457 12.0117H39.1119L41.6905 18.2383H41.7258L44.2338 12.0117H46.003Z" fill="#5F6368"/>
<path d="M16.2445 14.4427C16.2451 13.9468 16.2033 13.4517 16.1194 12.9629H9.2666V15.7658H13.1915C13.1112 16.2135 12.9412 16.6403 12.6918 17.0204C12.4424 17.4005 12.1187 17.726 11.7403 17.9775V19.7969H14.0827C15.4543 18.5304 16.2445 16.6574 16.2445 14.4427Z" fill="#4285F4"/>
<path d="M9.26651 21.5548C11.2275 21.5548 12.8786 20.9099 14.0826 19.798L11.7402 17.9786C11.0882 18.4213 10.2485 18.674 9.26651 18.674C7.37115 18.674 5.76242 17.3943 5.18715 15.6699H2.77405V17.545C3.37885 18.7503 4.30626 19.7636 5.45272 20.4717C6.59919 21.1797 7.91959 21.5547 9.26651 21.5548Z" fill="#34A853"/>
<path d="M5.18723 15.6706C4.8831 14.767 4.8831 13.7884 5.18723 12.8848V11.0098H2.77413C2.26534 12.0238 2.00037 13.1429 2.00037 14.2777C2.00037 15.4125 2.26534 16.5316 2.77413 17.5456L5.18723 15.6706Z" fill="#FBBC04"/>
<path d="M9.26651 9.88126C10.3028 9.86431 11.3041 10.2564 12.054 10.9729L14.128 8.89573C12.8129 7.65859 11.0707 6.97937 9.26651 7.00048C7.91959 7.00054 6.59919 7.37554 5.45272 8.08361C4.30626 8.79169 3.37885 9.80497 2.77405 11.0103L5.18715 12.8854C5.76242 11.1609 7.37115 9.88126 9.26651 9.88126Z" fill="#EA4335"/>
</g>
<defs>
<clipPath id="clip0">
<rect width="44" height="17.5" fill="white" transform="translate(2 7)"/>
</clipPath>
</defs>
</svg>
