<svg width="48" height="32" viewBox="0 0 48 32" fill="none" xmlns="http://www.w3.org/2000/svg">
<path d="M11.2408 6C5.58912 6 1 10.5826 1 16.2408C1 21.8989 5.5826 26.4815 11.2408 26.4815C16.8989 26.4815 21.4815 21.8989 21.4815 16.2408C21.4815 10.5826 16.8989 6 11.2408 6ZM11.2408 25.3538C6.20839 25.3538 2.12772 21.2732 2.12772 16.2408C2.12772 11.2084 6.20839 7.12772 11.2408 7.12772C16.2732 7.12772 20.3538 11.2084 20.3538 16.2408C20.3538 21.2732 16.2732 25.3538 11.2408 25.3538Z" fill="#8DC641"/>
<path d="M14.7741 13.8765L12.5215 17.3075H14.7741V13.8765ZM15.6236 12.4883V17.3141H16.6147V18.1867H15.6236V19.9914H14.7676V18.1867H11.5819V17.248L14.7934 12.4949L15.6236 12.4883ZM10.6423 19.1122V19.9848H5.86694V19.9584C5.91199 19.1386 6.11794 18.5371 6.51696 18.0413C6.83874 17.6314 7.23133 17.3273 8.0358 16.8117C8.0358 16.8117 8.31897 16.6266 8.40264 16.5737C8.83383 16.2894 9.11057 16.0647 9.33582 15.8068C9.61256 15.4763 9.75415 15.1193 9.75415 14.6963C9.75415 13.8765 9.1878 13.3146 8.37689 13.3146C7.43084 13.3146 6.94815 14.055 6.92241 15.159V15.1788H6.07289V15.159L6.06645 14.9607C6.06645 13.4799 7.00607 12.4883 8.42194 12.4883C9.80564 12.4883 10.7066 13.3477 10.7066 14.6764C10.7066 15.3573 10.4685 15.906 10.0116 16.3886C9.67048 16.7588 9.31652 17.0034 8.52492 17.4992C8.51205 17.5058 8.50561 17.5124 8.49274 17.519C8.45412 17.5389 8.28036 17.6446 8.23531 17.6777C7.8556 17.909 7.62391 18.0743 7.41796 18.2726C7.16697 18.5172 6.99964 18.7883 6.92241 19.1056H10.6423V19.1122Z" fill="black"/>
<path d="M25.9022 11.2109H30.086C31.1259 11.2109 31.9418 11.4589 32.5418 11.9469C33.1418 12.4429 33.4457 13.1708 33.4457 14.1467C33.4457 15.0667 33.1658 15.7946 32.6058 16.3306C32.0458 16.8666 31.2859 17.1386 30.3179 17.1386H27.5981V20.8503H25.9022V11.2109ZM27.5981 12.6268V15.7866H29.958C31.1899 15.7866 31.7978 15.2587 31.7978 14.2027C31.7978 13.1548 31.1339 12.6348 29.806 12.6348L27.5981 12.6268Z" fill="black"/>
<path d="M34.3013 16.028C34.4613 14.4441 35.4852 13.6602 37.3651 13.6602C38.237 13.6602 38.941 13.8281 39.461 14.1721C39.9809 14.5161 40.2369 15.0521 40.2369 15.772V19.3158C40.2369 19.5158 40.2609 19.6518 40.3089 19.7238C40.3569 19.7958 40.4529 19.8358 40.5969 19.8358C40.7089 19.8358 40.8209 19.8278 40.9489 19.8118V20.8997C40.5489 20.9957 40.2209 21.0517 39.9489 21.0517C39.293 21.0517 38.909 20.7717 38.813 20.2117C38.229 20.7717 37.4051 21.0517 36.3572 21.0517C35.6372 21.0517 35.0612 20.8677 34.6373 20.4917C34.2133 20.1157 33.9973 19.6118 33.9973 18.9638C33.9973 18.7638 34.0213 18.5798 34.0613 18.4119C34.1093 18.2439 34.1573 18.0919 34.2213 17.9639C34.2773 17.8359 34.3733 17.7239 34.5093 17.6119C34.6373 17.4999 34.7493 17.4119 34.8373 17.3399C34.9253 17.2679 35.0612 17.2039 35.2612 17.1399C35.4532 17.0759 35.5972 17.0279 35.6932 16.9959C35.7892 16.9639 35.9492 16.9319 36.1892 16.8919C36.4212 16.86 36.5811 16.828 36.6531 16.82C36.7331 16.804 36.8931 16.788 37.1331 16.756C37.6851 16.684 38.0611 16.62 38.261 16.572C38.461 16.524 38.597 16.444 38.669 16.348C38.733 16.276 38.765 16.108 38.765 15.844C38.765 15.1401 38.285 14.7881 37.3251 14.7881C36.8211 14.7881 36.4532 14.8841 36.2132 15.0761C35.9812 15.2681 35.8292 15.588 35.7652 16.036H34.3013V16.028ZM38.741 17.3559C38.621 17.4199 38.485 17.4759 38.333 17.5239C38.181 17.5719 38.0531 17.6039 37.9571 17.6199C37.8611 17.6359 37.7171 17.6519 37.5091 17.6839C37.3091 17.7079 37.1731 17.7319 37.1091 17.7399C36.9171 17.7639 36.7731 17.7959 36.6611 17.8119C36.5491 17.8359 36.4212 17.8759 36.2612 17.9239C36.1012 17.9799 35.9812 18.0439 35.8932 18.1239C35.8052 18.2039 35.7332 18.3079 35.6692 18.4358C35.6052 18.5638 35.5732 18.7238 35.5732 18.8998C35.5732 19.2358 35.6852 19.4918 35.9012 19.6678C36.1252 19.8518 36.4292 19.9398 36.8291 19.9398C37.5171 19.9398 38.0451 19.7558 38.413 19.3878C38.621 19.1798 38.725 18.7798 38.725 18.1799V17.3559H38.741Z" fill="black"/>
<path d="M41.5253 13.7051L44.1664 20.9113L43.9197 21.6901C43.8148 22.0302 43.3448 22.5573 42.7937 22.5814H42.0645V24.0472H42.9965C44.0641 24.0472 45.0071 23.3513 45.3218 22.3311L45.6878 21.1447L45.6883 21.1431L48 13.7051H46.3012L44.8662 18.3222L43.2447 13.7051H41.5253Z" fill="black"/>
</svg>
