<svg width="48" height="32" fill="none" xmlns="http://www.w3.org/2000/svg"><path d="M38 15.995H24.003V2H24c-7.73 0-13.998 6.266-14 13.995V16c0 7.732 6.268 14 14 14h.005C31.735 30 38 23.73 38 16l-.002-.005Z" fill="#fff"/><path d="M24 4.03c6.6 0 11.97 5.37 11.97 11.97 0 6.6-5.37 11.97-11.97 11.97-6.6 0-11.972-5.37-11.972-11.97 0-6.601 5.37-11.97 11.972-11.97ZM24 2c-7.732 0-14 6.268-14 14 0 7.731 6.268 14 14 14s14-6.268 14-14c0-7.733-6.268-14-14-14Z" fill="#D00823"/><path d="M38 15.995H24.003V2H24c-7.73 0-13.998 6.266-14 13.995V16c0 7.732 6.268 14 14 14h.005C31.735 30 38 23.73 38 16l-.002-.005ZM19.72 20.11h-.097a.292.292 0 0 0-.266.297v3.183a.282.282 0 0 0 .266.288h.096v.106h-1.351v-.106h.106a.282.282 0 0 0 .254-.288v-3.334h-1.744l.01.149v3.182a.282.282 0 0 0 .256.288h.105v.106h-1.35v-.106h.097a.282.282 0 0 0 .265-.288v-3.18a.291.291 0 0 0-.265-.297h-.096v-.128h3.713v.128Zm8.179 0h-.095a.3.3 0 0 0-.265.297v3.183a.29.29 0 0 0 .265.288h.095v.106h-1.342v-.106h.1a.29.29 0 0 0 .265-.288V20.64l-1.446 3.375H25.4l-1.412-3.438v3.012a.282.282 0 0 0 .256.288h.105v.106h-.988v-.106h.095a.282.282 0 0 0 .267-.288v-3.182a.266.266 0 0 0-.299-.287c-.159 0-.352.16-.457.393l-1.366 3.15a.528.528 0 0 1-.522.333l-.309-.01s-.07-.405-.063-.405c.09.07.186.13.287.18.17.087.287-.02.34-.14l.17-.383-1.223-2.692c-.141-.267-.246-.405-.436-.437v-.128h1.223v.128h-.106c-.096 0-.138.15-.064.297l.926 2.13.872-2.065c.096-.192.022-.34-.128-.353v-.141h1.777l1.288 3.012 1.18-2.777.107-.235h.977l.002.132Zm2.374 3.905c-.564 0-1.022-.2-1.351-.627-.33-.394-.49-1.053-.49-1.906 0-1.053.16-1.68.49-2.17.33-.488.787-.723 1.412-.723h.523c.23.028.464.017.692-.032a.343.343 0 0 0 .233-.203h.1c-.033.299-.16.5-.362.628-.234.128-.49.202-.882.202h-.362c-1.32-.074-1.586 1.31-1.448 2.33.097.627.33 1.308.724 1.776.33.362.851.586 1.277.224.36-.288.457-.98.457-1.373 0-.692-.256-1.777-1.116-1.777a.797.797 0 0 0-.682.362c-.138.192-.202.553-.202.917h-.16c-.106-.852.288-1.543 1.182-1.575 1.052 0 1.702.852 1.702 1.906 0 1.053-.653 2.041-1.737 2.041Z" fill="#D00823"/></svg>