<svg width="48" height="32" viewBox="0 0 48 32" fill="none" xmlns="http://www.w3.org/2000/svg">
<path d="M13.7714 10.3122L10.2936 19.3344L9.95426 17.4649C9.10601 15.189 7.23987 12.8319 5.03442 11.9378L8.25776 23.561H11.99L17.5885 10.3122H13.7714ZM16.7402 23.561L18.9457 10.3122H22.5083L20.3029 23.561H16.7402ZM37.9464 18.8467C38.2009 18.1152 39.3884 15.1078 39.3884 15.1078C39.3884 15.1078 39.6429 14.3762 39.8974 13.8073L40.1518 14.9452L41.0001 18.7654H37.9464V18.8467ZM42.2725 10.3122H39.5581C38.7098 10.3122 38.0312 10.556 37.6919 11.4501L32.4328 23.561H36.1651C36.1651 23.561 36.7589 21.9354 36.9285 21.5289C37.3526 21.5289 41.0001 21.5289 41.509 21.5289C41.5939 22.0166 41.9332 23.4797 41.9332 23.4797H45.2413C45.1565 23.561 42.2725 10.3122 42.2725 10.3122ZM33.1962 10.6373C32.5176 10.3935 31.4149 10.0684 29.9729 10.0684C26.4951 10.0684 23.9503 11.8565 23.9503 14.4575C23.9503 16.327 25.7316 17.4649 27.0888 18.0339C28.446 18.6841 28.955 19.0905 28.955 19.6595C28.955 20.5536 27.8523 20.96 26.8344 20.96C25.3923 20.96 24.6289 20.7974 23.5262 20.2285L23.0173 20.0659L22.5083 22.992C23.3566 23.3984 24.8834 23.6423 26.4951 23.7235C30.2274 23.7235 32.6873 21.9354 32.6873 19.1718C32.6873 17.6275 31.7542 16.4895 29.7184 15.5955C28.446 14.9452 27.6826 14.5388 27.7674 13.9698C27.7674 13.4009 28.446 12.8319 29.8032 12.8319C30.7363 12.8319 31.6694 12.9945 32.4328 13.3196L32.7721 13.4822C32.6873 13.4822 33.1962 10.6373 33.1962 10.6373Z" fill="#1B548E"/>
<path d="M7.56322 10.0684H2V10.3241C6.33604 11.5174 9.11765 14.3303 10.3448 17.6546L9.11765 11.2617C8.87221 10.3241 8.29953 10.0684 7.56322 10.0684Z" fill="#E89F3E"/>
</svg>
