<svg width="48" height="32" viewBox="0 0 48 32" fill="none" xmlns="http://www.w3.org/2000/svg">
<g clip-path="url(#clip0)">
<path d="M10.0442 9.32065C9.52858 9.92864 8.70358 10.4082 7.87858 10.3397C7.77545 9.5176 8.17936 8.64415 8.65201 8.10466C9.16764 7.47954 10.07 7.03425 10.8005 7C10.8864 7.85633 10.5512 8.69553 10.0442 9.32065ZM10.7919 10.5024C9.59733 10.4339 8.57467 11.1789 8.00748 11.1789C7.4317 11.1789 6.56373 10.5366 5.61842 10.5538C4.38951 10.5709 3.24655 11.2645 2.6192 12.3692C1.33014 14.5785 2.28405 17.8497 3.53014 19.648C4.1403 20.5385 4.87076 21.5147 5.83326 21.4805C6.7442 21.4462 7.10514 20.8896 8.20514 20.8896C9.31373 20.8896 9.6317 21.4805 10.5942 21.4634C11.5911 21.4462 12.2184 20.5728 12.8286 19.6822C13.5247 18.6717 13.8083 17.687 13.8255 17.6356C13.8083 17.6185 11.9005 16.8906 11.8833 14.6984C11.8661 12.8658 13.3872 11.9924 13.4559 11.941C12.5965 10.6736 11.2559 10.5366 10.7919 10.5024ZM17.6926 8.01903V21.3692H19.7723V16.8049H22.6512C25.2809 16.8049 27.1286 15.0067 27.1286 12.4034C27.1286 9.80019 25.3153 8.01903 22.72 8.01903H17.6926ZM19.7723 9.76594H22.17C23.9747 9.76594 25.0059 10.725 25.0059 12.412C25.0059 14.099 23.9747 15.0666 22.1614 15.0666H19.7723V9.76594ZM30.927 21.4719C32.2333 21.4719 33.445 20.8126 33.995 19.7678H34.0379V21.3692H35.963V14.7241C35.963 12.7973 34.4161 11.5557 32.0356 11.5557C29.827 11.5557 28.1942 12.8145 28.134 14.5442H30.0075C30.1622 13.7222 30.927 13.1827 31.9754 13.1827C33.2473 13.1827 33.9606 13.7735 33.9606 14.8611V15.5975L31.3653 15.7517C28.9505 15.8972 27.6442 16.882 27.6442 18.5947C27.6442 20.3245 28.9934 21.4719 30.927 21.4719ZM31.4856 19.8877C30.377 19.8877 29.6723 19.3568 29.6723 18.5433C29.6723 17.7041 30.3512 17.216 31.6489 17.1389L33.9606 16.9933V17.7469C33.9606 18.9971 32.895 19.8877 31.4856 19.8877ZM38.5325 25C40.5606 25 41.5145 24.2293 42.3481 21.8915L46.0005 11.6841H43.8864L41.4372 19.5709H41.3942L38.945 11.6841H36.7708L40.2942 21.4034L40.1051 21.9943C39.7872 22.9962 39.2715 23.3815 38.352 23.3815C38.1887 23.3815 37.8708 23.3644 37.7419 23.3473V24.9486C37.8622 24.9829 38.3778 25 38.5325 25Z" fill="black"/>
</g>
<defs>
<clipPath id="clip0">
<rect width="44" height="18" fill="white" transform="translate(2 7)"/>
</clipPath>
</defs>
</svg>
