<svg width="24" height="24" viewBox="0 0 24 24" fill="none" xmlns="http://www.w3.org/2000/svg">
<path d="M7.53334 3.85801C7.4 3.85801 7.2 3.92447 7.2 4.19033V21.4713C7.2 21.6707 7.33334 21.8036 7.53334 21.8036H16.5333C16.7333 21.8036 16.7333 21.5378 16.7333 21.4713V4.19033C16.7333 3.85801 16.5333 3.85801 16.5333 3.85801H13.5333V2.19637H10.4667V3.85801H7.53334ZM16.5333 23H7.53334C6.66667 23 6 22.3353 6 21.4048V4.12387C6 3.25982 6.66667 2.59517 7.53334 2.59517H9.26667V1H14.7333V2.66163H16.5333C17.4 2.66163 18 3.32628 18 4.19033V21.4713C18 22.3353 17.4 23 16.5333 23ZM8.60001 20.7402H15.1333V19.5438H8.60001V20.7402ZM11 16.287L10.0667 15.5559L12.0667 12.9637L10.2 11.568L12.9333 7.71299L13.9333 8.44411L11.8667 11.3021L13.8 12.7644L11 16.287Z" fill="#757575"/>
</svg>
