<?xml version="1.0" encoding="UTF-8" standalone="no" ?>
<!DOCTYPE svg PUBLIC "-//W3C//DTD SVG 1.1//EN" "http://www.w3.org/Graphics/SVG/1.1/DTD/svg11.dtd">
<svg xmlns="http://www.w3.org/2000/svg" xmlns:xlink="http://www.w3.org/1999/xlink" version="1.1" width="750" height="500" viewBox="0 0 750 500" xml:space="preserve">
<desc>Created with Fabric.js 5.2.4</desc>
<defs>
</defs>
<rect x="0" y="0" width="100%" height="100%" fill="transparent"></rect>
<g transform="matrix(1 0 0 1 375 250)" id="83a20db7-88dd-4f80-a649-aa8b9a26e616"  >
<rect style="stroke: none; stroke-width: 1; stroke-dasharray: none; stroke-linecap: butt; stroke-dashoffset: 0; stroke-linejoin: miter; stroke-miterlimit: 4; fill: rgb(127,40,40); fill-rule: nonzero; opacity: 1; visibility: hidden;" vector-effect="non-scaling-stroke"  x="-375" y="-250" rx="0" ry="0" width="750" height="500" />
</g>
<g transform="matrix(Infinity NaN NaN Infinity 0 0)" id="d6ef552b-268e-4ab9-8ce6-0de6baae9675"  >
</g>
<g transform="matrix(0.97 0 0 1.22 376.28 231.31)"  >
<g style="" vector-effect="non-scaling-stroke"   >
		<g transform="matrix(1 0 0 1 -325 -131.04)"  >
<rect style="stroke: none; stroke-width: 1; stroke-dasharray: none; stroke-linecap: butt; stroke-dashoffset: 0; stroke-linejoin: miter; stroke-miterlimit: 4; fill: #f3f3f3; fill-opacity: 0; fill-rule: nonzero; opacity: 1;" vector-effect="non-scaling-stroke"  x="-50" y="-50" rx="0" ry="0" width="100" height="100" />
</g>
		<g transform="matrix(1 0 0 1 0 18.96)"  >
<rect style="stroke: none; stroke-width: 1; stroke-dasharray: none; stroke-linecap: butt; stroke-dashoffset: 0; stroke-linejoin: miter; stroke-miterlimit: 4; fill: #f3f3f3; fill-rule: nonzero; opacity: 1; visibility: hidden;" vector-effect="non-scaling-stroke"  x="-375" y="-200" rx="0" ry="0" width="750" height="400" />
</g>
		<g transform="matrix(0.86 0 0 0.75 0 -0.38)"  >
<rect style="stroke: none; stroke-width: 1; stroke-dasharray: none; stroke-linecap: butt; stroke-dashoffset: 0; stroke-linejoin: miter; stroke-miterlimit: 4; fill: #f3f3f3; fill-rule: nonzero; opacity: 1;" vector-effect="non-scaling-stroke"  x="-450" y="-300" rx="0" ry="0" width="900" height="600" />
</g>
		<g transform="matrix(0.86 0 0 0.75 0 22.13)"  >
<linearGradient id="SVGID_blue-gradient_3" gradientUnits="objectBoundingBox" gradientTransform="matrix(1 0 0 1 0 0)"  x1="0" y1="0" x2="1" y2="1">
<stop offset="35%" style="stop-color:rgb(3,103,210);stop-opacity: 1"/>
<stop offset="80%" style="stop-color:rgb(4,205,247);stop-opacity: 1"/>
</linearGradient>
<path style="stroke: none; stroke-width: 1; stroke-dasharray: none; stroke-linecap: butt; stroke-dashoffset: 0; stroke-linejoin: miter; stroke-miterlimit: 4; fill: url(#SVGID_blue-gradient_3); fill-rule: nonzero; opacity: 1;" vector-effect="non-scaling-stroke"  transform=" translate(-450, -330)" d="M 0 508 L 30 468 C 60 428 120 348 180 300.3 C 240 252.7 300 237.3 360 264.8 C 420 292.3 480 362.7 540 346 C 600 329.3 660 225.7 720 163.3 C 780 101 840 80 870 69.5 L 900 59 L 900 601 L 870 601 C 840 601 780 601 720 601 C 660 601 600 601 540 601 C 480 601 420 601 360 601 C 300 601 240 601 180 601 C 120 601 60 601 30 601 L 0 601 Z" stroke-linecap="round" />
</g>
		<g transform="matrix(0.86 0 0 0.75 0 97.87)"  >
<linearGradient id="SVGID_orange-gradient_4" gradientUnits="objectBoundingBox" gradientTransform="matrix(1 0 0 1 0 0)"  x1="0" y1="0" x2="1" y2="1">
<stop offset="35%" style="stop-color:rgb(255,208,16);stop-opacity: 1"/>
<stop offset="85%" style="stop-color:rgb(243,114,44);stop-opacity: 1"/>
</linearGradient>
<path style="stroke: none; stroke-width: 1; stroke-dasharray: none; stroke-linecap: butt; stroke-dashoffset: 0; stroke-linejoin: miter; stroke-miterlimit: 4; fill: url(#SVGID_orange-gradient_4); fill-rule: nonzero; opacity: 1;" vector-effect="non-scaling-stroke"  transform=" translate(-450, -431)" d="M 0 261 L 30 290 C 60 319 120 377 180 382.7 C 240 388.3 300 341.7 360 331.2 C 420 320.7 480 346.3 540 365.8 C 600 385.3 660 398.7 720 396.2 C 780 393.7 840 375.3 870 366.2 L 900 357 L 900 601 L 870 601 C 840 601 780 601 720 601 C 660 601 600 601 540 601 C 480 601 420 601 360 601 C 300 601 240 601 180 601 C 120 601 60 601 30 601 L 0 601 Z" stroke-linecap="round" />
</g>
</g>
</g>
</svg>