<svg width="48" height="32" viewBox="0 0 48 32" fill="none" xmlns="http://www.w3.org/2000/svg">
<g clip-path="url(#clip0)">
<path d="M13.2494 28.7832V27.1347C13.2494 26.5028 12.8663 26.0906 12.2096 26.0906C11.8812 26.0906 11.5255 26.2005 11.2792 26.5577C11.0877 26.2555 10.814 26.0906 10.4036 26.0906C10.1299 26.0906 9.8563 26.1731 9.63739 26.4753V26.1456H9.06274V28.7832H9.63739V27.327C9.63739 26.8599 9.88366 26.6401 10.2668 26.6401C10.6499 26.6401 10.8414 26.8874 10.8414 27.327V28.7832H11.416V27.327C11.416 26.8599 11.6897 26.6401 12.0454 26.6401C12.4285 26.6401 12.6201 26.8874 12.6201 27.327V28.7832H13.2494ZM21.7596 26.1456H20.8292V25.3488H20.2546V26.1456H19.7347V26.6676H20.2546V27.8765C20.2546 28.4809 20.5009 28.8381 21.1576 28.8381C21.4039 28.8381 21.6775 28.7557 21.8691 28.6458L21.7049 28.1512C21.5407 28.2611 21.3492 28.2886 21.2123 28.2886C20.9387 28.2886 20.8292 28.1238 20.8292 27.849V26.6676H21.7596V26.1456ZM26.6304 26.0906C26.302 26.0906 26.0831 26.2555 25.9463 26.4753V26.1456H25.3717V28.7832H25.9463V27.2995C25.9463 26.8599 26.1378 26.6127 26.4936 26.6127C26.603 26.6127 26.7398 26.6401 26.8493 26.6676L27.0135 26.1181C26.904 26.0906 26.7398 26.0906 26.6304 26.0906ZM19.2695 26.3654C18.9959 26.1731 18.6128 26.0906 18.2023 26.0906C17.5456 26.0906 17.1077 26.4203 17.1077 26.9424C17.1077 27.382 17.4361 27.6292 18.0108 27.7117L18.2844 27.7391C18.5854 27.7941 18.7496 27.8765 18.7496 28.0139C18.7496 28.2062 18.5307 28.3436 18.1476 28.3436C17.7645 28.3436 17.4635 28.2062 17.2719 28.0688L16.9983 28.5084C17.2993 28.7282 17.7097 28.8381 18.1202 28.8381C18.8864 28.8381 19.3242 28.4809 19.3242 27.9864C19.3242 27.5193 18.9685 27.2721 18.4212 27.1896L18.1476 27.1622C17.9013 27.1347 17.7097 27.0797 17.7097 26.9149C17.7097 26.7226 17.9013 26.6127 18.2023 26.6127C18.5307 26.6127 18.859 26.75 19.0232 26.8325L19.2695 26.3654ZM34.5386 26.0906C34.2102 26.0906 33.9913 26.2555 33.8545 26.4753V26.1456H33.2798V28.7832H33.8545V27.2995C33.8545 26.8599 34.046 26.6127 34.4018 26.6127C34.5112 26.6127 34.648 26.6401 34.7575 26.6676L34.9217 26.1181C34.8122 26.0906 34.648 26.0906 34.5386 26.0906ZM27.205 27.4644C27.205 28.2611 27.7523 28.8381 28.6006 28.8381C28.9837 28.8381 29.2573 28.7557 29.531 28.5359L29.2573 28.0688C29.0384 28.2337 28.8195 28.3161 28.5732 28.3161C28.108 28.3161 27.7797 27.9864 27.7797 27.4644C27.7797 26.9698 28.108 26.6401 28.5732 26.6127C28.8195 26.6127 29.0384 26.6951 29.2573 26.8599L29.531 26.3929C29.2573 26.1731 28.9837 26.0906 28.6006 26.0906C27.7523 26.0906 27.205 26.6676 27.205 27.4644ZM32.5136 27.4644V26.1456H31.939V26.4753C31.7474 26.228 31.4738 26.0906 31.1181 26.0906C30.3793 26.0906 29.8046 26.6676 29.8046 27.4644C29.8046 28.2611 30.3793 28.8381 31.1181 28.8381C31.5012 28.8381 31.7748 28.7007 31.939 28.4535V28.7832H32.5136V27.4644ZM30.4066 27.4644C30.4066 26.9973 30.7076 26.6127 31.2002 26.6127C31.6654 26.6127 31.9937 26.9698 31.9937 27.4644C31.9937 27.9314 31.6654 28.3161 31.2002 28.3161C30.7076 28.2886 30.4066 27.9314 30.4066 27.4644ZM23.5383 26.0906C22.7721 26.0906 22.2248 26.6401 22.2248 27.4644C22.2248 28.2886 22.7721 28.8381 23.5656 28.8381C23.9487 28.8381 24.3318 28.7282 24.6328 28.4809L24.3592 28.0688C24.1403 28.2337 23.8666 28.3436 23.593 28.3436C23.2373 28.3436 22.8815 28.1787 22.7994 27.7117H24.7423V27.4919C24.7696 26.6401 24.2771 26.0906 23.5383 26.0906ZM23.5383 26.5852C23.894 26.5852 24.1403 26.805 24.195 27.2171H22.8268C22.8815 26.8599 23.1278 26.5852 23.5383 26.5852ZM37.7949 27.4644V25.1016H37.2202V26.4753C37.0287 26.228 36.7551 26.0906 36.3993 26.0906C35.6605 26.0906 35.0858 26.6676 35.0858 27.4644C35.0858 28.2611 35.6605 28.8381 36.3993 28.8381C36.7824 28.8381 37.0561 28.7007 37.2202 28.4535V28.7832H37.7949V27.4644ZM35.6879 27.4644C35.6879 26.9973 35.9889 26.6127 36.4814 26.6127C36.9466 26.6127 37.275 26.9698 37.275 27.4644C37.275 27.9314 36.9466 28.3161 36.4814 28.3161C35.9889 28.2886 35.6879 27.9314 35.6879 27.4644ZM16.4784 27.4644V26.1456H15.9037V26.4753C15.7122 26.228 15.4385 26.0906 15.0828 26.0906C14.344 26.0906 13.7693 26.6676 13.7693 27.4644C13.7693 28.2611 14.344 28.8381 15.0828 28.8381C15.4659 28.8381 15.7395 28.7007 15.9037 28.4535V28.7832H16.4784V27.4644ZM14.344 27.4644C14.344 26.9973 14.645 26.6127 15.1375 26.6127C15.6027 26.6127 15.9311 26.9698 15.9311 27.4644C15.9311 27.9314 15.6027 28.3161 15.1375 28.3161C14.645 28.2886 14.344 27.9314 14.344 27.4644Z" fill="black"/>
<path d="M27.6975 6.11523H19.0779V21.6659H27.6975V6.11523Z" fill="#FF5F00"/>
<path d="M19.6251 13.8909C19.6251 10.7313 21.1027 7.92887 23.3739 6.11555C21.7047 4.79676 19.5977 4 17.2991 4C11.8537 4 7.44812 8.42341 7.44812 13.8909C7.44812 19.3583 11.8537 23.7817 17.2991 23.7817C19.5977 23.7817 21.7047 22.985 23.3739 21.6662C21.1027 19.8803 19.6251 17.0504 19.6251 13.8909Z" fill="#EB001B"/>
<path d="M39.3272 13.8909C39.3272 19.3583 34.9216 23.7817 29.4762 23.7817C27.1776 23.7817 25.0706 22.985 23.4014 21.6662C25.6999 19.8529 27.1502 17.0504 27.1502 13.8909C27.1502 10.7313 25.6726 7.92887 23.4014 6.11555C25.0706 4.79676 27.1776 4 29.4762 4C34.9216 4 39.3272 8.45089 39.3272 13.8909Z" fill="#F79E1B"/>
</g>
<defs>
<clipPath id="clip0">
<rect width="43.5852" height="24.9058" fill="white" transform="translate(2 4)"/>
</clipPath>
</defs>
</svg>
