<?xml version="1.0" standalone="no"?>
<!DOCTYPE svg PUBLIC "-//W3C//DTD SVG 20010904//EN"
 "http://www.w3.org/TR/2001/REC-SVG-20010904/DTD/svg10.dtd">
<svg version="1.0" xmlns="http://www.w3.org/2000/svg"
 width="2100.000000pt" height="531.000000pt" viewBox="0 0 2100.000000 531.000000"
 preserveAspectRatio="xMidYMid meet">
<metadata>
Created by potrace 1.16, written by Peter Selinger 2001-2019
</metadata>
<g transform="translate(0.000000,531.000000) scale(0.100000,-0.100000)"
fill="#a6a5a5" stroke="none">
<path d="M2095 5295 c-297 -39 -616 -144 -870 -288 -643 -363 -1073 -978
-1201 -1717 -24 -140 -30 -531 -11 -680 35 -268 107 -509 221 -746 121 -251
246 -430 436 -627 316 -328 717 -561 1152 -667 226 -55 311 -65 583 -65 272 0
358 10 583 65 340 83 695 263 961 484 111 93 295 286 381 401 232 308 387 668
449 1037 161 952 -239 1884 -1038 2419 -312 209 -659 337 -1041 385 -140 17
-466 17 -605 -1z m-49 -1787 c192 -637 354 -1158 359 -1158 6 0 167 521 359
1158 192 636 352 1163 355 1170 6 10 216 -670 907 -2936 l13 -42 -80 0 c-55 0
-81 4 -84 13 -2 6 -22 82 -45 167 -107 397 -252 700 -399 831 -31 28 -90 67
-130 87 -74 36 -77 37 -195 37 -119 0 -122 -1 -186 -35 -79 -42 -198 -158
-262 -255 -57 -87 -150 -260 -209 -387 -39 -85 -45 -94 -53 -75 -42 99 -174
356 -215 417 -101 152 -206 256 -311 308 -50 24 -65 27 -165 26 -128 0 -179
-16 -282 -90 -186 -133 -338 -452 -483 -1011 l-11 -43 -80 0 c-61 0 -80 3 -77
13 3 6 209 682 458 1500 250 818 457 1482 460 1475 4 -7 164 -534 356 -1170z"/>
<path d="M11220 3577 c0 -584 4 -954 11 -1007 21 -175 98 -336 222 -466 156
-165 337 -245 590 -260 l107 -7 0 206 0 207 -68 0 c-126 0 -230 39 -314 118
-59 55 -94 111 -119 193 -17 56 -19 98 -19 530 l0 469 255 0 255 0 0 205 0
205 -255 0 -255 0 0 265 0 265 -205 0 -205 0 0 -923z"/>
<path d="M18220 3185 l0 -1315 205 0 205 0 0 1315 0 1315 -205 0 -205 0 0
-1315z"/>
<path d="M6365 3959 c-266 -39 -509 -221 -623 -469 -79 -170 -76 -131 -80
-917 l-3 -703 206 0 205 0 0 675 c0 653 1 678 20 736 102 303 464 396 693 180
30 -28 66 -74 82 -102 55 -102 55 -99 55 -821 l0 -668 205 0 205 0 0 678 c0
759 -2 731 72 842 115 172 339 237 523 151 77 -36 162 -112 198 -179 57 -104
57 -108 57 -829 l0 -663 200 0 201 0 -3 718 -3 717 -24 70 c-107 318 -362 539
-676 585 -255 36 -515 -46 -701 -222 l-54 -51 -65 61 c-181 170 -436 248 -690
211z"/>
<path d="M9755 3959 c-544 -78 -941 -560 -912 -1103 15 -271 123 -515 311
-702 96 -96 176 -151 300 -209 551 -257 1207 -1 1436 562 86 213 100 462 39
684 -25 91 -92 235 -149 320 -56 82 -187 213 -269 268 -225 152 -499 217 -756
180z m348 -428 c112 -40 180 -83 267 -171 134 -133 190 -268 190 -455 0 -111
-18 -184 -72 -295 -82 -169 -254 -302 -445 -344 -284 -63 -586 82 -718 344
-55 109 -69 171 -69 300 0 100 4 126 28 195 77 224 249 383 475 440 81 21 268
13 344 -14z"/>
<path d="M13200 3959 c-100 -13 -231 -54 -329 -103 -395 -199 -618 -602 -579
-1049 37 -434 338 -799 762 -921 442 -128 925 48 1179 431 210 316 235 728 64
1068 -98 196 -281 377 -484 479 -171 85 -406 122 -613 95z m358 -434 c40 -14
90 -36 110 -48 208 -119 334 -334 334 -572 0 -182 -59 -323 -192 -456 -70 -70
-102 -94 -172 -128 -235 -114 -482 -88 -695 73 -114 87 -206 236 -237 388 -19
94 -20 139 -1 242 44 248 242 457 494 521 91 24 268 14 359 -20z"/>
<path d="M15347 3954 c-329 -59 -594 -318 -661 -646 -14 -66 -16 -176 -16
-758 l0 -680 200 0 200 0 0 633 c0 390 4 657 11 696 25 159 135 289 287 340
50 17 86 21 192 21 l130 0 0 205 0 205 -132 -1 c-73 0 -168 -7 -211 -15z"/>
<path d="M16750 3960 c-274 -39 -534 -191 -701 -413 -350 -463 -260 -1135 199
-1482 418 -316 998 -288 1376 66 131 122 222 265 280 439 106 320 57 668 -135
945 -68 99 -215 237 -318 299 -93 56 -227 109 -333 132 -89 19 -280 26 -368
14z m304 -420 c123 -31 209 -81 306 -179 86 -87 125 -149 165 -266 26 -74 32
-253 11 -335 -62 -249 -261 -442 -510 -496 -281 -60 -582 87 -711 349 -58 116
-79 213 -72 327 18 291 223 536 506 605 84 20 215 18 305 -5z"/>
<path d="M19840 3965 c-8 -2 -49 -9 -90 -15 -316 -52 -607 -267 -753 -555
-234 -465 -112 -1017 295 -1332 362 -279 883 -291 1258 -29 l65 46 3 -105 3
-105 190 0 190 0 -3 613 c-3 592 -4 615 -25 689 -88 311 -280 547 -558 684
-147 72 -272 103 -435 109 -69 2 -132 2 -140 0z m308 -438 c259 -91 432 -318
449 -587 9 -149 -40 -306 -137 -434 -113 -150 -324 -255 -513 -256 -241 -1
-481 147 -585 360 -54 110 -72 184 -72 295 0 187 56 322 190 456 96 96 181
147 302 179 105 29 265 23 366 -13z"/>
<path d="M5855 628 c-103 -227 -189 -419 -192 -425 -4 -10 10 -13 50 -13 l54
0 49 110 49 110 221 0 220 0 49 -110 50 -110 57 0 58 0 -26 58 c-14 31 -100
222 -192 425 l-167 367 -46 0 -46 0 -188 -412z m298 142 c30 -69 69 -155 86
-192 l30 -68 -179 0 -179 0 79 174 c84 188 100 220 105 214 1 -1 27 -59 58
-128z"/>
<path d="M11550 1026 c-212 -61 -343 -267 -309 -486 35 -230 252 -392 480
-360 76 11 191 66 237 112 l32 34 -34 33 -35 34 -38 -33 c-136 -120 -333 -114
-451 14 -162 176 -112 435 103 537 108 52 240 33 335 -48 l43 -37 34 38 35 38
-29 30 c-15 16 -61 46 -102 66 -66 33 -82 36 -165 39 -53 1 -110 -3 -136 -11z"/>
<path d="M6930 610 l0 -420 285 0 285 0 0 45 0 45 -235 0 -235 0 0 375 0 375
-50 0 -50 0 0 -420z"/>
<path d="M14130 817 c-58 -16 -113 -50 -139 -85 l-20 -27 -1 53 0 52 -50 0
-50 0 0 -405 0 -405 50 0 50 0 0 141 0 141 37 -32 c61 -54 116 -73 192 -68
119 9 215 78 267 191 24 53 26 68 22 145 -3 72 -9 96 -33 141 -67 122 -208
190 -325 158z m128 -103 c49 -20 90 -60 113 -109 25 -54 25 -156 0 -211 -35
-78 -138 -135 -212 -119 -178 39 -248 242 -132 382 53 64 155 89 231 57z"/>
<path d="M7767 806 c-118 -42 -197 -146 -213 -278 -11 -95 34 -211 108 -273
100 -85 236 -103 350 -47 35 17 75 43 88 57 l24 26 -31 30 -30 31 -46 -35
c-59 -45 -135 -63 -200 -46 -77 19 -157 105 -157 168 0 21 3 21 241 21 l242 0
-5 73 c-8 126 -64 216 -163 263 -58 27 -147 31 -208 10z m184 -100 c36 -24 70
-81 83 -138 l6 -28 -194 0 -194 0 8 36 c22 95 122 171 210 160 24 -4 61 -17
81 -30z"/>
<path d="M8450 804 c-19 -8 -50 -29 -67 -46 l-33 -32 0 42 0 42 -50 0 -50 0 0
-310 0 -310 50 0 50 0 0 203 c0 228 4 246 73 301 34 27 47 31 102 31 69 0 99
-15 139 -69 19 -25 21 -43 24 -247 l3 -219 50 0 49 0 0 233 c0 204 -3 237 -19
272 -23 49 -64 89 -113 109 -48 20 -162 20 -208 0z"/>
<path d="M9094 799 c-71 -27 -137 -88 -171 -157 -25 -50 -28 -68 -28 -147 1
-78 5 -97 28 -142 77 -149 242 -214 404 -159 69 23 145 92 180 164 24 49 28
68 27 142 0 103 -24 161 -94 231 -85 85 -229 113 -346 68z m217 -92 c143 -76
167 -278 45 -384 -160 -141 -401 15 -356 230 13 63 61 126 119 157 52 28 136
26 192 -3z"/>
<path d="M10420 811 c-93 -30 -165 -95 -206 -184 -24 -53 -26 -68 -22 -145 3
-72 9 -96 33 -140 99 -182 348 -223 506 -84 102 89 133 267 69 392 -26 51 -93
115 -148 141 -50 25 -184 36 -232 20z m187 -106 c80 -40 123 -114 123 -211 0
-127 -94 -224 -217 -224 -63 1 -119 27 -165 78 -104 116 -60 314 82 371 47 19
123 13 177 -14z"/>
<path d="M12234 799 c-71 -27 -137 -88 -171 -157 -24 -50 -28 -68 -28 -147 0
-74 5 -99 24 -137 73 -150 246 -219 408 -164 69 23 145 92 180 164 24 49 28
68 27 142 0 103 -24 161 -94 231 -85 85 -229 113 -346 68z m217 -92 c139 -74
166 -271 52 -379 -102 -98 -277 -66 -342 61 -62 120 -17 261 104 324 46 25
133 21 186 -6z"/>
<path d="M12963 790 c-29 -16 -56 -38 -62 -47 -8 -14 -10 -9 -11 25 l0 42 -50
0 -50 0 0 -310 0 -310 50 0 50 0 0 207 c0 202 1 207 25 249 45 77 149 106 215
61 69 -46 75 -67 78 -304 l4 -213 49 0 49 0 0 210 c0 235 3 248 67 297 47 36
135 40 180 7 58 -42 63 -68 63 -301 l0 -213 56 0 56 0 -4 228 c-3 226 -3 227
-31 285 -41 82 -86 111 -184 116 -90 4 -145 -14 -196 -66 l-36 -35 -34 36
c-45 47 -93 66 -169 66 -51 0 -73 -6 -115 -30z"/>
<path d="M14761 810 c-69 -11 -141 -38 -141 -54 0 -12 20 -76 23 -76 1 0 26 9
54 20 108 41 206 36 262 -14 27 -24 51 -75 51 -110 0 -23 -1 -24 -42 -14 -60
14 -205 14 -254 0 -102 -29 -158 -104 -152 -204 3 -46 11 -66 34 -95 47 -59
103 -83 196 -83 84 0 130 14 185 56 l33 25 0 -35 0 -36 51 0 51 0 -4 233 c-3
218 -4 235 -25 274 -50 94 -172 136 -322 113z m179 -324 l65 -11 3 -49 c6 -94
-79 -169 -193 -169 -67 0 -114 26 -139 76 -16 34 -17 42 -5 74 31 81 117 106
269 79z"/>
<path d="M15450 804 c-19 -8 -50 -29 -67 -46 l-33 -32 0 42 0 42 -50 0 -50 0
0 -310 0 -310 50 0 50 0 0 200 c0 224 4 246 63 297 80 70 193 54 255 -37 21
-32 22 -42 22 -246 l0 -214 50 0 50 0 0 233 c0 204 -3 237 -19 272 -23 49 -64
89 -113 109 -48 20 -162 20 -208 0z"/>
<path d="M9554 793 c4 -10 64 -152 134 -316 l127 -298 45 3 44 3 133 305 c73
168 133 308 133 313 0 4 -24 7 -52 7 l-53 0 -99 -240 c-54 -132 -102 -240
-106 -240 -4 0 -37 75 -74 168 -38 92 -81 200 -98 240 l-30 72 -55 0 c-48 0
-54 -2 -49 -17z"/>
<path d="M15854 793 c3 -10 66 -148 140 -308 l133 -290 -18 -37 c-33 -65 -90
-88 -158 -64 l-43 14 -14 -34 c-8 -18 -14 -38 -14 -43 0 -29 169 -43 218 -17
29 16 70 57 94 96 16 27 288 681 288 693 0 5 -25 7 -56 5 l-56 -3 -59 -155
c-33 -85 -76 -197 -96 -248 l-36 -93 -108 248 -108 248 -56 3 c-51 3 -56 1
-51 -15z"/>
</g>
</svg>
