<svg width="40" height="40" viewBox="0 0 40 40" fill="none" xmlns="http://www.w3.org/2000/svg">
<path d="M15.9785 9.92773C15.9785 9.48242 16.2715 9.22461 16.7754 9.22461L23.373 9.22461C23.7891 9.22461 24.0234 9.42383 24.0234 9.77539C24.0234 10.127 23.7949 10.3203 23.373 10.3203H18.3105V10.3789L22.582 12.2305C23.0742 12.4531 23.25 12.6348 23.25 12.957C23.25 13.291 23.0801 13.4727 22.582 13.6953L18.3105 15.5527V15.6172H23.373C23.7891 15.6172 24.0234 15.8105 24.0234 16.1621C24.0234 16.5137 23.7949 16.707 23.373 16.707H16.7754C16.2715 16.707 15.9785 16.4434 15.9785 16.0039C15.9785 15.6289 16.1543 15.4414 16.7344 15.1836L21.8965 12.9805V12.9395L16.7344 10.748C16.1484 10.4961 15.9785 10.2969 15.9785 9.92773Z" fill="#757575"/>
<path fill-rule="evenodd" clip-rule="evenodd" d="M23.4961 24.4766C23.8184 24.4766 24.0234 24.2539 24.0234 23.9258C24.0234 23.6094 23.8477 23.416 23.4258 23.2871L21.709 22.7188V19.7891L23.4434 19.2031C23.8477 19.0742 24.0234 18.8867 24.0234 18.582C24.0234 18.2188 23.8125 17.9961 23.4727 17.9961C23.3496 17.9961 23.209 18.0254 23.0273 18.084L16.8047 20.293C16.207 20.5039 15.9785 20.7559 15.9785 21.2188C15.9785 21.6992 16.1895 21.9395 16.8047 22.1562L23.0449 24.3711C23.25 24.4473 23.3906 24.4766 23.4961 24.4766ZM20.7715 22.4141L17.3145 21.2773V21.2246L20.7715 20.0879V22.4141Z" fill="#757575"/>
<path fill-rule="evenodd" clip-rule="evenodd" d="M23.4785 25.502C23.3379 25.502 23.168 25.543 23.0391 25.6133L20.6133 26.9023C20.2734 26.0059 19.4473 25.4434 18.4102 25.4434C16.9336 25.4434 16.002 26.457 16.002 28.0742V30.0371C16.002 30.7695 16.2949 31.0742 16.998 31.0742H23.3613C23.7773 31.0742 24.0234 30.8574 24.0234 30.4824C24.0234 30.1074 23.7715 29.8789 23.3613 29.8789H20.8828V28.0977L23.4844 26.7852C23.8652 26.5918 24.0234 26.416 24.0234 26.1113C24.0234 25.7305 23.7949 25.502 23.4785 25.502ZM19.8984 29.8789H17.0156V28.2324C17.0156 27.248 17.5547 26.668 18.4746 26.668C19.3945 26.668 19.8984 27.2363 19.8984 28.2676V29.8789Z" fill="#757575"/>
<path fill-rule="evenodd" clip-rule="evenodd" d="M11 5C11 3.89543 11.8954 3 13 3H27C28.1046 3 29 3.89543 29 5V7H31C31.5523 7 32 7.44772 32 8C32 8.55228 31.5523 9 31 9H29V13H31C31.5523 13 32 13.4477 32 14C32 14.5523 31.5523 15 31 15H29V19H31C31.5523 19 32 19.4477 32 20C32 20.5523 31.5523 21 31 21H29V25H31C31.5523 25 32 25.4477 32 26C32 26.5523 31.5523 27 31 27H29V31H31C31.5523 31 32 31.4477 32 32C32 32.5523 31.5523 33 31 33H29V35C29 36.1046 28.1046 37 27 37H13C11.8954 37 11 36.1046 11 35V33H9C8.44772 33 8 32.5523 8 32C8 31.4477 8.44772 31 9 31H11V27H9C8.44772 27 8 26.5523 8 26C8 25.4477 8.44772 25 9 25H11V21H9C8.44772 21 8 20.5523 8 20C8 19.4477 8.44772 19 9 19H11V15H9C8.44772 15 8 14.5523 8 14C8 13.4477 8.44772 13 9 13H11V9H9C8.44772 9 8 8.55228 8 8C8 7.44772 8.44772 7 9 7H11V5ZM13 5H27V35H13V5Z" fill="#757575"/>
</svg>
